<svg width="512" height="512" viewBox="0 0 512 512" fill="none" xmlns="http://www.w3.org/2000/svg">
<path d="M256 16C123.42 16 16 123.422 16 256C16 388.578 123.42 496 256 496C388.58 496 496 388.578 496 256C496 123.422 388.58 16 256 16ZM382.625 302.625L278.646 406.602C270.664 414.602 260.9 416 256 416C251.119 416 241.346 414.609 233.354 406.602L129.375 302.625C116.875 290.125 116.875 269.875 129.375 257.375C141.875 244.875 162.125 244.875 174.625 257.375L224 306.75V128C224 110.312 238.328 96 256 96C273.672 96 288 110.312 288 128V306.75L337.375 257.375C349.875 244.875 370.125 244.875 382.625 257.375C395.125 269.875 395.125 290.125 382.625 302.625Z" fill="#240843"/>
<path d="M382.625 302.625L278.646 406.602C270.664 414.602 260.9 416 256 416C251.119 416 241.346 414.609 233.354 406.602L129.375 302.625C116.875 290.125 116.875 269.875 129.375 257.375C141.875 244.875 162.125 244.875 174.625 257.375L224 306.75V128C224 110.312 238.328 96 256 96C273.672 96 288 110.312 288 128V306.75L337.375 257.375C349.875 244.875 370.125 244.875 382.625 257.375C395.125 269.875 395.125 290.125 382.625 302.625Z" fill="#471186"/>
</svg>
