<svg width="512" height="512" viewBox="0 0 512 512" fill="none" xmlns="http://www.w3.org/2000/svg">
<g clip-path="url(#clip0_2_82)">
<path d="M208 0C93.125 0 0 93.125 0 208C0 322.875 93.125 416 208 416C322.875 416 416 322.875 416 208C416 93.125 322.875 0 208 0ZM208 336C137.42 336 80 278.578 80 208C80 137.42 137.42 80 208 80C278.58 80 336 137.42 336 208C336 278.578 278.58 336 208 336Z" fill="#240843"/>
<path d="M504.918 482.344L482.291 504.971C472.918 514.344 457.723 514.344 448.35 504.971L324 380.623C346.309 365.594 365.541 346.361 380.57 324.053L504.918 448.402C514.291 457.775 514.291 472.971 504.918 482.344Z" fill="#471186"/>
</g>
<defs>
<clipPath id="clip0_2_82">
<rect width="512" height="512" fill="white"/>
</clipPath>
</defs>
</svg>
