<svg width="512" height="512" viewBox="0 0 512 512" fill="none" xmlns="http://www.w3.org/2000/svg">
<path d="M379.152 304.781C348.879 314.531 303.953 320.031 256 320.031C208.047 320.031 163.121 314.531 132.848 304.781C127.641 303.156 121.828 304.281 117.59 307.906C113.352 311.656 111.414 317.156 112.262 322.781C121.465 377.781 195.453 416.031 256.121 416.031C316.668 416.031 390.656 377.781 399.859 322.781C400.828 317.281 398.77 311.656 394.652 307.906C390.293 304.281 384.359 303.031 379.152 304.781ZM256 384.031C221.004 384.031 178.984 367.781 157.551 343.781C214.949 354.531 297.051 354.531 354.57 343.781C333.016 367.781 290.996 384.031 256 384.031ZM256 16C123.451 16 16 123.451 16 256C16 388.549 123.451 496 256 496C388.549 496 496 388.549 496 256C496 123.451 388.549 16 256 16ZM256 464C141.309 464 48 370.691 48 256C48 141.309 141.309 48 256 48C370.691 48 464 141.309 464 256C464 370.691 370.691 464 256 464ZM175.955 232C189.293 232 200 221.312 200 208C200 194.688 189.293 184 175.955 184C162.707 184 152 194.688 152 208C152 221.312 162.707 232 175.955 232ZM335.955 232C349.293 232 360 221.312 360 208C360 194.688 349.293 184 335.955 184C322.707 184 312 194.688 312 208C312 221.312 322.707 232 335.955 232Z" fill="#8490C2"/>
</svg>
