<svg width="512" height="512" viewBox="0 0 512 512" fill="none" xmlns="http://www.w3.org/2000/svg">
<g id="fill">
<path id="Vector" d="M256 501.5C391.586 501.5 501.5 391.586 501.5 256C501.5 120.414 391.586 10.5 256 10.5C120.414 10.5 10.5 120.414 10.5 256C10.5 391.586 120.414 501.5 256 501.5Z" fill="#21075F" stroke="#8155F1" stroke-width="11"/>
<path id="Vector_2" d="M376 256C376 261.102 371.872 265.231 366.769 265.231H265.231V366.769C265.231 371.872 261.102 376 256 376C250.898 376 246.769 371.872 246.769 366.769V265.231H145.231C140.128 265.231 136 261.102 136 256C136 250.898 140.128 246.769 145.231 246.769H246.769V145.231C246.769 140.128 250.898 136 256 136C261.102 136 265.231 140.128 265.231 145.231V246.769H366.769C371.872 246.769 376 250.898 376 256Z" fill="#8155F1"/>
</g>
</svg>
