<svg width="512" height="512" viewBox="0 0 512 512" fill="none" xmlns="http://www.w3.org/2000/svg">
<g id="arrow-left-long" clip-path="url(#clip0_10_94)">
<path id="Vector" d="M2.344 250.344C-0.780998 253.469 -0.780998 258.531 2.344 261.656L154.344 413.656C155.906 415.219 157.937 416 160 416C162.063 416 164.094 415.219 165.656 413.656C168.781 410.531 168.781 405.469 165.656 402.344L27.312 264H504C508.406 264 512 260.422 512 256C512 251.578 508.406 248 504 248H27.312L165.656 109.656C168.781 106.531 168.781 101.469 165.656 98.3438C162.531 95.2188 157.469 95.2188 154.344 98.3438L2.344 250.344Z" fill="#10F9F9"/>
</g>
<defs>
<clipPath id="clip0_10_94">
<rect width="512" height="512" fill="white"/>
</clipPath>
</defs>
</svg>
