<svg width="512" height="512" viewBox="0 0 512 512" fill="none" xmlns="http://www.w3.org/2000/svg">
<g id="arrow-left-alt">
<path id="Vector" d="M16 256C16 388.549 123.451 496 256 496C388.549 496 496 388.549 496 256C496 123.451 388.549 16 256 16C123.451 16 16 123.451 16 256ZM480 256C480 379.514 379.514 480 256 480C132.486 480 32 379.514 32 256C32 132.486 132.486 32 256 32C379.514 32 480 132.486 480 256ZM130.344 250.344C127.219 253.469 127.219 258.531 130.344 261.656L250.344 381.656C251.906 383.219 253.938 384 256 384C258.062 384 260.094 383.219 261.656 381.656C264.781 378.531 264.781 373.469 261.656 370.344L155.312 264H376C380.406 264 384 260.422 384 256C384 251.578 380.406 248 376 248H155.312L261.656 141.656C264.781 138.531 264.781 133.469 261.656 130.344C258.531 127.219 253.469 127.219 250.344 130.344L130.344 250.344Z" fill="#10F9F9"/>
</g>
</svg>
