<svg width="512" height="512" viewBox="0 0 512 512" fill="none" xmlns="http://www.w3.org/2000/svg">
<path d="M256 16C123.422 16 16 123.422 16 256C16 388.578 123.422 496 256 496C388.578 496 496 388.578 496 256C496 123.422 388.578 16 256 16ZM384 288H205.25L254.625 337.375C267.125 349.875 267.125 370.125 254.625 382.625C242.125 395.125 221.875 395.125 209.375 382.625L105.398 278.648C97.4 270.664 96 260.898 96 256C96 251.117 97.391 241.344 105.398 233.352L209.375 129.375C221.875 116.875 242.125 116.875 254.625 129.375C267.125 141.875 267.125 162.125 254.625 174.625L205.25 224H384C401.688 224 416 238.328 416 256C416 273.672 401.688 288 384 288Z" fill="#240843"/>
<path d="M384 288H205.25L254.625 337.375C267.125 349.875 267.125 370.125 254.625 382.625C242.125 395.125 221.875 395.125 209.375 382.625L105.398 278.648C97.4 270.664 96 260.898 96 256C96 251.117 97.391 241.344 105.398 233.352L209.375 129.375C221.875 116.875 242.125 116.875 254.625 129.375C267.125 141.875 267.125 162.125 254.625 174.625L205.25 224H384C401.688 224 416 238.328 416 256C416 273.672 401.688 288 384 288Z" fill="#471186"/>
</svg>
