<svg width="111" height="111" viewBox="0 0 111 111" fill="none" xmlns="http://www.w3.org/2000/svg">
<path d="M103.6 0H77.7C75.6567 0 74 1.65621 74 3.7V7.4C74 9.44332 75.6567 11.1 77.7 11.1H99.9V33.3C99.9 35.3433 101.557 37 103.6 37H107.3C109.343 37 111 35.3433 111 33.3V7.4C111 3.31289 107.687 0 103.6 0Z" fill="#FEEA49"/>
<path d="M111 103.6L111 77.7C111 75.6567 109.344 74 107.3 74L103.6 74C101.557 74 99.9 75.6567 99.9 77.7L99.9 99.9L77.7 99.9C75.6567 99.9 74 101.557 74 103.6L74 107.3C74 109.343 75.6567 111 77.7 111L103.6 111C107.687 111 111 107.687 111 103.6Z" fill="#FF9C32"/>
<path d="M7.4 111L33.3 111C35.3433 111 37 109.344 37 107.3L37 103.6C37 101.557 35.3433 99.9 33.3 99.9L11.1 99.9L11.1 77.7C11.1 75.6567 9.44333 74 7.4 74L3.7 74C1.65668 74 1.20172e-06 75.6567 1.38036e-06 77.7L3.64461e-06 103.6C4.00191e-06 107.687 3.31289 111 7.4 111Z" fill="#F25282"/>
<path d="M-1.29386e-06 7.4L-1.61732e-07 33.3C-7.24156e-08 35.3433 1.65621 37 3.7 37L7.4 37C9.44332 37 11.1 35.3433 11.1 33.3L11.1 11.1L33.3 11.1C35.3433 11.1 37 9.44333 37 7.4L37 3.7C37 1.65668 35.3433 2.74663e-06 33.3 2.83595e-06L7.4 3.96807e-06C3.31289 4.14672e-06 -1.47251e-06 3.31289 -1.29386e-06 7.4Z" fill="#FFB81F"/>
<path d="M85.1 74V44.4C85.1 40.3129 81.7871 37 77.7 37H69.375L67.944 33.1987C67.1346 31.0309 65.068 29.6 62.7555 29.6H48.2445C45.932 29.6 43.8508 31.0309 43.0414 33.1987L41.625 37H33.3C29.2129 37 25.9 40.3129 25.9 44.4V74C25.9 78.0866 29.2129 81.4 33.3 81.4H77.7C81.7871 81.4 85.1 78.0866 85.1 74ZM55.5 70.3C49.3719 70.3 44.4 65.3281 44.4 59.2C44.4 53.0718 49.3719 48.1 55.5 48.1C61.6281 48.1 66.6 53.0718 66.6 59.2C66.6 65.3281 61.6281 70.3 55.5 70.3Z" fill="#73DBFF"/>
</svg>
