<svg width="512" height="512" viewBox="0 0 512 512" fill="none" xmlns="http://www.w3.org/2000/svg">
<path d="M256 16C123.422 16 16 123.422 16 256C16 388.578 123.422 496 256 496C388.578 496 496 388.578 496 256C496 123.422 388.578 16 256 16ZM406.602 278.648L302.625 382.625C290.125 395.125 269.875 395.125 257.375 382.625C244.875 370.125 244.875 349.875 257.375 337.375L306.75 288H128C110.312 288 96 273.672 96 256C96 238.328 110.312 224 128 224H306.75L257.375 174.625C244.875 162.125 244.875 141.875 257.375 129.375C269.875 116.875 290.125 116.875 302.625 129.375L406.602 233.352C414.6 241.336 416 251.102 416 256C416 260.883 414.609 270.656 406.602 278.648Z" fill="#240843"/>
<path d="M406.602 277.607L302.625 381.583C290.125 394.083 269.875 394.083 257.375 381.583C244.875 369.083 244.875 348.833 257.375 336.333L306.75 286.958H128C110.312 286.958 96 272.63 96 254.958C96 237.286 110.312 222.958 128 222.958H306.75L257.375 173.583C244.875 161.083 244.875 140.833 257.375 128.333C269.875 115.833 290.125 115.833 302.625 128.333L406.602 232.31C414.6 240.294 416 250.06 416 254.958C416 259.841 414.609 269.615 406.602 277.607Z" fill="#471186"/>
</svg>
