<svg width="512" height="512" viewBox="0 0 512 512" fill="none" xmlns="http://www.w3.org/2000/svg">
<path d="M256.002 16C123.438 16 16 123.438 16 256C16 388.562 123.438 496 256.002 496C388.562 496 496 388.562 496 256C496 123.438 388.562 16 256.002 16ZM336.969 303.029C346.344 312.404 346.344 327.592 336.969 336.967C327.588 346.348 312.404 346.34 303.031 336.967L256 289.936L208.969 336.967C199.588 346.348 184.404 346.34 175.031 336.967C165.656 327.592 165.656 312.404 175.031 303.029L222.062 255.998L175.031 208.969C165.656 199.594 165.656 184.406 175.031 175.031C184.406 165.656 199.594 165.656 208.969 175.031L256 222.062L303.031 175.031C312.406 165.656 327.594 165.656 336.969 175.031C346.344 184.406 346.344 199.594 336.969 208.969L289.938 255.998L336.969 303.029Z" fill="#240843"/>
<path d="M289.938 255.999L336.969 208.968C346.344 199.593 346.344 184.406 336.969 175.031C327.594 165.656 312.406 165.656 303.031 175.031L256 222.062L208.969 175.031C199.594 165.656 184.406 165.656 175.031 175.031C165.656 184.406 165.656 199.593 175.031 208.968L222.062 255.999L175.031 303.03C165.656 312.405 165.656 327.592 175.031 336.967C184.404 346.34 199.588 346.348 208.969 336.967L256 289.936L303.031 336.967C312.404 346.34 327.588 346.348 336.969 336.967C346.344 327.592 346.344 312.405 336.969 303.03L289.938 255.999Z" fill="#471186"/>
</svg>
