<svg width="384" height="512" viewBox="0 0 384 512" fill="none" xmlns="http://www.w3.org/2000/svg">
<g clip-path="url(#clip0_2_133)">
<path d="M203.119 4.36255C196.939 -1.46145 187.057 -1.45345 180.879 4.36655C74.52 104.621 0 220.18 0 298.039C0 423.988 79 512 192 512C305 512 384 423.988 384 298.039C384 219.945 309.035 104.164 203.119 4.36255ZM192 448C121.375 448 64 395.125 64 330.125C64 286.001 89.875 258.625 98.375 250.375C101.5 247.25 106.5 247.25 109.625 250.375C111.125 251.875 112 253.875 112 256V296C112 327 137 352 168 352C198.875 352 224 327 224 296C224 224 111.375 231.25 184.5 131.625C187.5 127.75 192 127.5 195.125 128.5C196.75 129 200.5 130.75 200.5 135.25C200.5 168.875 225.625 190.25 252.125 212.875C285.5 241.5 320 271 320 330.125C320 395.125 262.625 448 192 448Z" fill="#240843"/>
<path d="M192 448C121.375 448 64 395.125 64 330.125C64 286.001 89.875 258.625 98.375 250.375C101.5 247.25 106.5 247.25 109.625 250.375C111.125 251.875 112 253.875 112 256V296C112 327 137 352 168 352C198.875 352 224 327 224 296C224 224 111.375 231.25 184.5 131.625C187.5 127.75 192 127.5 195.125 128.5C196.75 129 200.5 130.75 200.5 135.25C200.5 168.875 225.625 190.25 252.125 212.875C285.5 241.5 320 271 320 330.125C320 395.125 262.625 448 192 448Z" fill="#471186"/>
</g>
<defs>
<clipPath id="clip0_2_133">
<rect width="384" height="512" fill="white"/>
</clipPath>
</defs>
</svg>
