<svg width="512" height="512" viewBox="0 0 512 512" fill="none" xmlns="http://www.w3.org/2000/svg">
<g id="fill">
<path id="Vector" d="M256 501.5C391.586 501.5 501.5 391.586 501.5 256C501.5 120.414 391.586 10.5 256 10.5C120.414 10.5 10.5 120.414 10.5 256C10.5 391.586 120.414 501.5 256 501.5Z" fill="#21075F" stroke="#8155F1" stroke-width="11"/>
<path id="Vector_2" d="M346.362 261.115L277.79 336.74C276.438 338.244 274.576 338.996 272.714 338.996C271.067 338.996 269.413 338.405 268.1 337.21C265.301 334.658 265.094 330.308 267.638 327.502L325.784 263.371H169.857C166.067 263.371 163 260.296 163 256.496C163 252.696 166.067 249.621 169.857 249.621H325.784L267.638 185.49C265.094 182.684 265.301 178.333 268.1 175.782C270.906 173.244 275.239 173.432 277.79 176.252L346.362 251.877C348.739 254.495 348.739 258.496 346.362 261.115Z" fill="#12ECF8"/>
</g>
</svg>
