<svg width="512" height="512" viewBox="0 0 512 512" fill="none" xmlns="http://www.w3.org/2000/svg">
<g id="fill">
<path id="Vector" d="M256 501.5C391.586 501.5 501.5 391.586 501.5 256C501.5 120.414 391.586 10.5 256 10.5C120.414 10.5 10.5 120.414 10.5 256C10.5 391.586 120.414 501.5 256 501.5Z" fill="#270971" stroke="#6320EE" stroke-width="11"/>
<path id="Vector_2" d="M349 255.998C349 259.821 345.919 262.915 342.111 262.915H185.464L243.878 327.436C246.434 330.259 246.226 334.636 243.414 337.203C242.095 338.406 240.434 339 238.779 339C236.909 339 235.038 338.243 233.679 336.73L164.791 260.645C162.403 258.011 162.403 253.985 164.791 251.351L233.679 175.265C236.249 172.429 240.609 172.239 243.414 174.792C246.226 177.359 246.434 181.736 243.878 184.56L185.464 249.081H342.111C345.919 249.081 349 252.175 349 255.998Z" fill="#CEFF1A"/>
</g>
</svg>
