<svg width="363" height="113" viewBox="0 0 363 113" fill="none" xmlns="http://www.w3.org/2000/svg">
<path d="M103.6 0H77.7C75.6567 0 74 1.65621 74 3.7V7.4C74 9.44332 75.6567 11.1 77.7 11.1H99.9V33.3C99.9 35.3433 101.557 37 103.6 37H107.3C109.343 37 111 35.3433 111 33.3V7.4C111 3.31289 107.687 0 103.6 0Z" fill="#FEEA49"/>
<path d="M111 103.6L111 77.7C111 75.6567 109.344 74 107.3 74L103.6 74C101.557 74 99.9 75.6567 99.9 77.7L99.9 99.9L77.7 99.9C75.6567 99.9 74 101.557 74 103.6L74 107.3C74 109.343 75.6567 111 77.7 111L103.6 111C107.687 111 111 107.687 111 103.6Z" fill="#FF9C32"/>
<path d="M7.4 111L33.3 111C35.3433 111 37 109.344 37 107.3L37 103.6C37 101.557 35.3433 99.9 33.3 99.9L11.1 99.9L11.1 77.7C11.1 75.6567 9.44333 74 7.4 74L3.7 74C1.65668 74 1.20172e-06 75.6567 1.38036e-06 77.7L3.64461e-06 103.6C4.00191e-06 107.687 3.31289 111 7.4 111Z" fill="#F25282"/>
<path d="M-1.29386e-06 7.4L-1.61732e-07 33.3C-7.24156e-08 35.3433 1.65621 37 3.7 37L7.4 37C9.44332 37 11.1 35.3433 11.1 33.3L11.1 11.1L33.3 11.1C35.3433 11.1 37 9.44333 37 7.4L37 3.7C37 1.65668 35.3433 2.74663e-06 33.3 2.83595e-06L7.4 3.96807e-06C3.31289 4.14672e-06 -1.47251e-06 3.31289 -1.29386e-06 7.4Z" fill="#FFB81F"/>
<path d="M85.1 74V44.4C85.1 40.3129 81.7871 37 77.7 37H69.375L67.944 33.1987C67.1346 31.0309 65.068 29.6 62.7555 29.6H48.2445C45.932 29.6 43.8508 31.0309 43.0414 33.1987L41.625 37H33.3C29.2129 37 25.9 40.3129 25.9 44.4V74C25.9 78.0866 29.2129 81.4 33.3 81.4H77.7C81.7871 81.4 85.1 78.0866 85.1 74ZM55.5 70.3C49.3719 70.3 44.4 65.3281 44.4 59.2C44.4 53.0718 49.3719 48.1 55.5 48.1C61.6281 48.1 66.6 53.0718 66.6 59.2C66.6 65.3281 61.6281 70.3 55.5 70.3Z" fill="#73DBFF"/>
<path d="M140.565 83.7822C138.936 83.7822 137.583 83.5942 136.505 83.2183C135.427 82.8674 134.575 82.4663 133.948 82.0151C133.322 81.564 132.883 81.1379 132.632 80.7368C132.382 80.3107 132.256 80.035 132.256 79.9097C132.256 79.4585 132.357 78.9823 132.557 78.481C132.758 77.9546 133.008 77.4784 133.309 77.0522C133.61 76.6011 133.936 76.2251 134.287 75.9243C134.638 75.6235 134.951 75.4731 135.227 75.4731C135.577 75.4731 135.866 75.6987 136.091 76.1499C136.141 76.2 136.267 76.3254 136.467 76.5259C136.668 76.7264 136.944 76.9395 137.294 77.165C137.67 77.3656 138.122 77.5535 138.648 77.729C139.199 77.9045 139.839 77.9922 140.565 77.9922C142.145 77.9922 143.435 77.516 144.438 76.5635C145.441 75.5859 145.942 74.27 145.942 72.6157C145.942 71.4627 145.666 70.4351 145.115 69.5327C144.588 68.6304 143.887 67.7907 143.009 67.0137C142.132 66.2367 141.129 65.4847 140.001 64.7578C138.874 64.0059 137.721 63.2288 136.542 62.4268C135.364 61.6247 134.211 60.7599 133.083 59.8325C131.956 58.9051 130.953 57.8398 130.076 56.6367C129.198 55.4336 128.484 54.0801 127.933 52.5762C127.406 51.0472 127.143 49.3052 127.143 47.3501C127.143 45.6707 127.431 43.9788 128.008 42.2744C128.584 40.57 129.374 38.9533 130.376 37.4243C131.404 35.8703 132.607 34.429 133.986 33.1006C135.364 31.7471 136.856 30.5815 138.46 29.604C140.064 28.6014 141.731 27.8244 143.46 27.2729C145.215 26.6965 146.97 26.4082 148.724 26.4082C150.228 26.4082 151.582 26.6463 152.785 27.1226C153.988 27.5988 155.003 28.2756 155.83 29.1528C156.657 30.005 157.296 31.0452 157.748 32.2734C158.199 33.4766 158.424 34.8301 158.424 36.334C158.424 37.7627 158.174 39.1663 157.672 40.5449C157.171 41.9235 156.507 43.2269 155.68 44.4551C154.853 45.6833 153.913 46.8237 152.86 47.8765C151.832 48.9041 150.767 49.8065 149.664 50.5835C148.586 51.3354 147.534 51.9245 146.506 52.3506C145.478 52.7767 144.576 52.9897 143.799 52.9897C143.122 52.9897 142.508 52.8394 141.957 52.5386C141.43 52.2127 140.979 51.8242 140.603 51.373C140.252 50.8968 139.976 50.408 139.776 49.9067C139.575 49.3804 139.475 48.9167 139.475 48.5156C139.475 48.1898 139.513 47.9767 139.588 47.8765C139.688 47.7762 139.813 47.7386 139.964 47.7637C140.139 47.7637 140.352 47.8013 140.603 47.8765C140.854 47.9266 141.142 47.9517 141.468 47.9517C142.521 47.9517 143.686 47.5882 144.964 46.8613C146.243 46.1344 147.446 45.207 148.574 44.0791C149.702 42.9512 150.642 41.7104 151.394 40.3569C152.171 39.0034 152.559 37.6875 152.559 36.4092C152.559 35.1058 152.233 34.0781 151.582 33.3262C150.955 32.5742 149.877 32.1982 148.348 32.1982C147.396 32.1982 146.355 32.3862 145.228 32.7622C144.125 33.1131 143.009 33.6144 141.881 34.2661C140.753 34.9178 139.663 35.7074 138.61 36.6348C137.558 37.5622 136.63 38.5898 135.828 39.7178C135.026 40.8206 134.374 42.0238 133.873 43.3271C133.397 44.6055 133.159 45.9465 133.159 47.3501C133.159 48.8289 133.422 50.1574 133.948 51.3354C134.5 52.4884 135.214 53.5412 136.091 54.4937C136.994 55.4461 138.009 56.3234 139.137 57.1255C140.265 57.9276 141.418 58.7297 142.596 59.5317C143.774 60.3088 144.927 61.1234 146.055 61.9756C147.183 62.8027 148.185 63.7301 149.062 64.7578C149.965 65.7604 150.679 66.8883 151.206 68.1416C151.757 69.3698 152.033 70.786 152.033 72.3901C152.033 73.9442 151.732 75.423 151.13 76.8267C150.554 78.2052 149.752 79.4084 148.724 80.436C147.696 81.4637 146.481 82.2783 145.077 82.8799C143.674 83.4814 142.17 83.7822 140.565 83.7822ZM180.607 78.0674C181.384 78.0674 182.048 77.7917 182.6 77.2402C183.176 76.6888 183.665 75.9995 184.066 75.1724C184.492 74.3452 184.83 73.4554 185.081 72.5029C185.357 71.5254 185.582 70.6105 185.758 69.7583C185.933 68.9562 186.184 68.3797 186.51 68.0288C186.861 67.6528 187.237 67.4648 187.638 67.4648C187.938 67.4648 188.239 67.5651 188.54 67.7656C188.866 67.9411 189.154 68.1792 189.405 68.48C189.681 68.7808 189.894 69.1191 190.044 69.4951C190.219 69.8711 190.307 70.2471 190.307 70.623C190.307 70.6732 190.307 70.7358 190.307 70.811C190.307 70.8862 190.282 70.999 190.232 71.1494C189.906 72.4277 189.455 73.7687 188.878 75.1724C188.327 76.576 187.613 77.8669 186.735 79.0449C185.858 80.223 184.793 81.2005 183.54 81.9775C182.311 82.7546 180.87 83.1431 179.216 83.1431C177.862 83.1431 176.684 82.8548 175.682 82.2783C174.679 81.7018 173.889 80.9373 173.313 79.9849C172.536 80.8621 171.596 81.6016 170.493 82.2031C169.415 82.8298 168.15 83.1431 166.696 83.1431C165.192 83.1431 163.863 82.8423 162.71 82.2407C161.583 81.6392 160.63 80.8245 159.853 79.7969C159.076 78.7441 158.487 77.516 158.086 76.1123C157.71 74.6836 157.522 73.1546 157.522 71.5254C157.522 68.3171 158.036 65.4346 159.063 62.8779C160.091 60.3213 161.457 58.1532 163.162 56.3735C164.866 54.5688 166.809 53.1903 168.989 52.2378C171.195 51.2853 173.476 50.8091 175.832 50.8091C176.885 50.8091 177.737 51.0973 178.389 51.6738C179.04 52.2503 179.366 53.0399 179.366 54.0425C179.366 54.6942 179.291 55.1579 179.141 55.4336C179.015 55.6842 178.765 55.8096 178.389 55.8096C178.038 55.8096 177.674 55.7845 177.298 55.7344C176.922 55.6842 176.534 55.6592 176.133 55.6592C174.679 55.6592 173.2 55.985 171.696 56.6367C170.192 57.2633 168.826 58.2409 167.598 59.5693C166.395 60.8727 165.405 62.5396 164.628 64.5698C163.851 66.575 163.462 68.9688 163.462 71.751C163.462 73.7812 163.851 75.3478 164.628 76.4507C165.405 77.5285 166.47 78.0674 167.824 78.0674C168.876 78.0674 169.754 77.6789 170.456 76.9019C171.157 76.0998 171.721 75.1598 172.147 74.082V62.2012C172.147 61.8252 172.122 61.5119 172.072 61.2612C172.047 61.0106 172.01 60.7975 171.959 60.6221C171.934 60.4466 171.909 60.2962 171.884 60.1709C171.859 60.0205 171.847 59.8826 171.847 59.7573C171.847 59.3563 172.035 59.043 172.411 58.8174C172.812 58.5667 173.288 58.4414 173.839 58.4414C175.118 58.4414 176.133 58.7798 176.885 59.4565C177.637 60.1082 178.013 60.8978 178.013 61.8252V74.5332C178.013 74.9593 178.063 75.3854 178.163 75.8115C178.263 76.2126 178.414 76.5885 178.614 76.9395C178.815 77.2653 179.078 77.541 179.404 77.7666C179.755 77.9671 180.156 78.0674 180.607 78.0674ZM190.495 70.4351C190.295 71.2371 189.919 71.7384 189.367 71.939C188.816 72.1144 188.264 72.0894 187.713 71.8638C187.187 71.6382 186.735 71.2497 186.359 70.6982C186.008 70.1468 185.908 69.5452 186.059 68.8936C186.435 67.1891 186.973 65.3092 187.675 63.2539C188.402 61.1735 189.117 59.1056 189.818 57.0503C189.442 56.4738 189.142 55.8973 188.916 55.3208C188.69 54.7192 188.578 54.0926 188.578 53.4409C188.578 52.7892 188.816 52.1125 189.292 51.4106C189.793 50.6838 190.382 50.0195 191.059 49.418C191.761 48.8164 192.475 48.3276 193.202 47.9517C193.954 47.5506 194.593 47.3501 195.12 47.3501C196.047 47.3501 196.736 47.6634 197.188 48.29C197.664 48.9167 197.902 49.7563 197.902 50.8091C197.902 51.3856 197.802 51.9621 197.601 52.5386C197.426 53.09 197.225 53.6164 197 54.1177C196.774 54.5939 196.561 55.0075 196.36 55.3584C196.185 55.7093 196.085 55.9349 196.06 56.0352C196.962 57.6393 197.902 59.0555 198.879 60.2837C199.857 61.5119 200.747 62.7275 201.549 63.9307C202.376 65.1338 203.053 66.4121 203.579 67.7656C204.105 69.1191 204.369 70.7108 204.369 72.5405C204.369 72.9917 204.331 73.4554 204.256 73.9316C204.206 74.4079 204.118 74.859 203.993 75.2852C204.895 75.1097 205.685 74.834 206.361 74.458C207.063 74.082 207.665 73.6559 208.166 73.1797C208.692 72.6784 209.118 72.1395 209.444 71.563C209.795 70.9865 210.083 70.3849 210.309 69.7583C210.585 69.0314 210.861 68.505 211.136 68.1792C211.412 67.8534 211.725 67.6904 212.076 67.6904C212.402 67.6904 212.728 67.8032 213.054 68.0288C213.405 68.2293 213.705 68.4925 213.956 68.8184C214.232 69.1442 214.445 69.4826 214.595 69.8335C214.771 70.1844 214.858 70.4977 214.858 70.7734C214.858 71.1494 214.758 71.6006 214.558 72.127C214.357 72.6533 214.081 73.1922 213.73 73.7437C213.405 74.2951 213.029 74.834 212.603 75.3604C212.176 75.8617 211.738 76.3003 211.287 76.6763C210.083 77.6538 208.667 78.481 207.038 79.1577C205.409 79.8094 203.391 80.223 200.985 80.3984C200.057 81.2005 198.955 81.8522 197.676 82.3535C196.423 82.8799 195.007 83.1431 193.428 83.1431C192.626 83.1431 191.799 83.0428 190.946 82.8423C190.119 82.6418 189.317 82.3786 188.54 82.0527C187.788 81.752 187.099 81.4136 186.472 81.0376C185.846 80.6616 185.344 80.2856 184.968 79.9097C184.016 79.0073 183.402 78.105 183.126 77.2026C182.85 76.2752 182.788 75.4481 182.938 74.7212C183.063 73.9943 183.326 73.4053 183.728 72.9541C184.129 72.4779 184.542 72.2397 184.968 72.2397C185.219 72.2397 185.607 72.3525 186.134 72.5781C186.685 72.7786 187.312 73.0544 188.014 73.4053C188.715 73.7311 189.48 74.082 190.307 74.458C191.134 74.834 191.961 75.1974 192.789 75.5483C193.616 75.8742 194.418 76.1499 195.195 76.3755C195.997 76.576 196.724 76.6763 197.375 76.6763C197.802 76.175 198.19 75.5107 198.541 74.6836C198.892 73.8564 199.067 72.9541 199.067 71.9766C199.067 70.7734 198.904 69.658 198.579 68.6304C198.253 67.6027 197.827 66.6502 197.3 65.7729C196.774 64.8957 196.172 64.0811 195.496 63.3291C194.844 62.5521 194.18 61.8252 193.503 61.1484C192.901 62.6273 192.375 64.0936 191.924 65.5474C191.473 66.9761 190.996 68.6053 190.495 70.4351ZM232.492 78.0674C233.269 78.0674 233.933 77.7917 234.484 77.2402C235.061 76.6888 235.55 75.9995 235.951 75.1724C236.377 74.3452 236.715 73.4554 236.966 72.5029C237.242 71.5254 237.467 70.6105 237.643 69.7583C237.818 68.9562 238.069 68.3797 238.395 68.0288C238.745 67.6528 239.121 67.4648 239.522 67.4648C239.823 67.4648 240.124 67.5651 240.425 67.7656C240.751 67.9411 241.039 68.1792 241.29 68.48C241.565 68.7808 241.778 69.1191 241.929 69.4951C242.104 69.8711 242.192 70.2471 242.192 70.623C242.192 70.6732 242.192 70.7358 242.192 70.811C242.192 70.8862 242.167 70.999 242.117 71.1494C241.791 72.4277 241.34 73.7687 240.763 75.1724C240.212 76.576 239.497 77.8669 238.62 79.0449C237.743 80.223 236.678 81.2005 235.424 81.9775C234.196 82.7546 232.755 83.1431 231.101 83.1431C229.747 83.1431 228.569 82.8548 227.566 82.2783C226.564 81.7018 225.774 80.9373 225.198 79.9849C224.421 80.8621 223.481 81.6016 222.378 82.2031C221.3 82.8298 220.034 83.1431 218.581 83.1431C217.077 83.1431 215.748 82.8423 214.595 82.2407C213.467 81.6392 212.515 80.8245 211.738 79.7969C210.961 78.7441 210.372 77.516 209.971 76.1123C209.595 74.6836 209.407 73.1546 209.407 71.5254C209.407 68.3171 209.921 65.4346 210.948 62.8779C211.976 60.3213 213.342 58.1532 215.046 56.3735C216.751 54.5688 218.693 53.1903 220.874 52.2378C223.08 51.2853 225.361 50.8091 227.717 50.8091C228.77 50.8091 229.622 51.0973 230.273 51.6738C230.925 52.2503 231.251 53.0399 231.251 54.0425C231.251 54.6942 231.176 55.1579 231.025 55.4336C230.9 55.6842 230.649 55.8096 230.273 55.8096C229.923 55.8096 229.559 55.7845 229.183 55.7344C228.807 55.6842 228.419 55.6592 228.018 55.6592C226.564 55.6592 225.085 55.985 223.581 56.6367C222.077 57.2633 220.711 58.2409 219.483 59.5693C218.28 60.8727 217.29 62.5396 216.513 64.5698C215.736 66.575 215.347 68.9688 215.347 71.751C215.347 73.7812 215.736 75.3478 216.513 76.4507C217.29 77.5285 218.355 78.0674 219.708 78.0674C220.761 78.0674 221.639 77.6789 222.34 76.9019C223.042 76.0998 223.606 75.1598 224.032 74.082V62.2012C224.032 61.8252 224.007 61.5119 223.957 61.2612C223.932 61.0106 223.894 60.7975 223.844 60.6221C223.819 60.4466 223.794 60.2962 223.769 60.1709C223.744 60.0205 223.731 59.8826 223.731 59.7573C223.731 59.3563 223.919 59.043 224.295 58.8174C224.696 58.5667 225.173 58.4414 225.724 58.4414C227.002 58.4414 228.018 58.7798 228.77 59.4565C229.521 60.1082 229.897 60.8978 229.897 61.8252V74.5332C229.897 74.9593 229.948 75.3854 230.048 75.8115C230.148 76.2126 230.299 76.5885 230.499 76.9395C230.7 77.2653 230.963 77.541 231.289 77.7666C231.639 77.9671 232.041 78.0674 232.492 78.0674ZM242.643 103.859C242.643 101.904 242.894 100.175 243.395 98.6709C243.921 97.167 244.623 95.7884 245.5 94.5352C246.378 93.2819 247.393 92.1038 248.546 91.001C249.699 89.9232 250.915 88.8203 252.193 87.6924V79.6089C251.416 80.3859 250.501 81.0376 249.448 81.564C248.421 82.1154 247.23 82.3911 245.876 82.3911C244.373 82.3911 243.044 82.0903 241.891 81.4888C240.763 80.8872 239.811 80.0726 239.034 79.0449C238.257 77.9922 237.668 76.764 237.267 75.3604C236.891 73.9316 236.703 72.4027 236.703 70.7734C236.703 67.5651 237.216 64.6826 238.244 62.126C239.272 59.5693 240.638 57.4012 242.342 55.6216C244.047 53.8169 245.989 52.4383 248.17 51.4858C250.376 50.5334 252.657 50.0571 255.013 50.0571C256.065 50.0571 256.918 50.3454 257.569 50.9219C258.221 51.4733 258.547 52.2629 258.547 53.2905C258.547 53.9422 258.472 54.4059 258.321 54.6816C258.196 54.9323 257.945 55.0576 257.569 55.0576C257.218 55.0576 256.855 55.0326 256.479 54.9824C256.103 54.9323 255.715 54.9072 255.313 54.9072C253.86 54.9072 252.381 55.2331 250.877 55.8848C249.373 56.5114 248.007 57.4889 246.779 58.8174C245.576 60.1208 244.586 61.7876 243.809 63.8179C243.032 65.8231 242.643 68.2168 242.643 70.999C242.643 73.0042 243.032 74.5583 243.809 75.6611C244.586 76.764 245.651 77.3154 247.004 77.3154C247.781 77.3154 248.458 77.0898 249.035 76.6387C249.611 76.1624 250.112 75.5734 250.539 74.8716C250.965 74.1698 251.303 73.4053 251.554 72.5781C251.829 71.7259 252.042 70.9113 252.193 70.1343V61.4492C252.193 60.7223 252.13 60.196 252.005 59.8701C251.905 59.5443 251.854 59.2435 251.854 58.9678C251.854 58.5918 252.055 58.2785 252.456 58.0278C252.857 57.7772 253.333 57.6519 253.885 57.6519C255.163 57.6519 256.166 57.9902 256.893 58.667C257.645 59.3187 258.021 60.1208 258.021 61.0732V82.0151C259.424 80.4611 260.702 78.694 261.855 76.7139C263.034 74.7337 264.011 72.4152 264.788 69.7583C265.039 68.9562 265.314 68.3797 265.615 68.0288C265.916 67.6528 266.267 67.4648 266.668 67.4648C266.969 67.4648 267.27 67.5651 267.57 67.7656C267.896 67.9411 268.184 68.1792 268.435 68.48C268.711 68.7808 268.924 69.1191 269.074 69.4951C269.25 69.8711 269.337 70.2471 269.337 70.623C269.337 70.6732 269.337 70.7734 269.337 70.9238C269.337 71.0742 269.312 71.2246 269.262 71.375C268.611 73.6058 267.846 75.5859 266.969 77.3154C266.117 79.0199 265.202 80.5488 264.224 81.9023C263.247 83.2559 262.231 84.459 261.179 85.5117C260.126 86.5895 259.073 87.5796 258.021 88.4819V101.792C258.021 103.822 257.782 105.526 257.306 106.905C256.855 108.308 256.253 109.436 255.501 110.289C254.75 111.166 253.885 111.792 252.907 112.168C251.955 112.544 250.99 112.732 250.012 112.732C248.934 112.732 247.944 112.494 247.042 112.018C246.14 111.567 245.363 110.94 244.711 110.138C244.059 109.336 243.545 108.396 243.169 107.318C242.819 106.241 242.643 105.088 242.643 103.859ZM250.012 107.882C250.639 107.882 251.103 107.632 251.403 107.13C251.704 106.629 251.905 106.04 252.005 105.363C252.13 104.712 252.193 104.047 252.193 103.371C252.193 102.694 252.193 102.167 252.193 101.792V93.5576C250.94 94.8109 249.924 96.2271 249.147 97.8062C248.396 99.3853 248.02 101.328 248.02 103.634C248.02 104.837 248.195 105.84 248.546 106.642C248.897 107.469 249.386 107.882 250.012 107.882ZM281.933 83.1431C281.03 83.1431 280.103 83.0052 279.15 82.7295C278.223 82.4538 277.371 81.9775 276.594 81.3008C275.842 80.624 275.215 79.7342 274.714 78.6313C274.238 77.5034 274 76.0872 274 74.3828C274 71.9014 274.325 69.2821 274.977 66.5249C275.654 63.7427 276.619 60.6847 277.872 57.3511H272.007H271.142C271.117 58.103 271.067 59.0555 270.992 60.2085C270.942 61.3615 270.841 62.5897 270.691 63.8931C270.541 65.1965 270.34 66.5124 270.089 67.8408C269.864 69.1693 269.576 70.3975 269.225 71.5254C268.974 72.3275 268.573 72.7912 268.021 72.9165C267.495 73.0418 266.969 72.9541 266.442 72.6533C265.916 72.3275 265.49 71.8638 265.164 71.2622C264.838 70.6606 264.763 70.034 264.938 69.3823C265.139 68.6053 265.314 67.6654 265.465 66.5625C265.615 65.4346 265.728 64.2565 265.803 63.0283C265.903 61.7751 265.979 60.5343 266.029 59.3062C266.079 58.0529 266.117 56.9375 266.142 55.96C265.189 55.4336 264.4 54.7694 263.773 53.9673C263.146 53.1401 262.833 52.1626 262.833 51.0347C262.833 50.5083 262.933 50.0321 263.134 49.606C263.359 49.1548 263.648 48.7788 263.999 48.478C264.349 48.1522 264.763 47.9141 265.239 47.7637C265.715 47.5882 266.204 47.5005 266.706 47.5005C267.157 47.5005 267.62 47.5632 268.097 47.6885C268.598 47.8138 269.062 48.0394 269.488 48.3652C269.939 48.6911 270.34 49.1172 270.691 49.6436C271.042 50.1699 271.33 50.8216 271.556 51.5986C272.182 51.6738 272.709 51.7365 273.135 51.7866C273.586 51.8117 273.962 51.8368 274.263 51.8618C274.563 51.8869 274.814 51.8994 275.015 51.8994C275.215 51.8994 275.416 51.8994 275.616 51.8994H279.639C279.865 51.8994 280.191 52.0373 280.617 52.313C281.068 52.5887 281.507 52.9521 281.933 53.4033C282.359 53.8294 282.71 54.2931 282.985 54.7944C283.286 55.2957 283.399 55.772 283.324 56.2231C283.324 56.3735 283.236 56.737 283.061 57.3135C282.885 57.89 282.672 58.6169 282.421 59.4941C282.171 60.3714 281.895 61.3866 281.594 62.5396C281.293 63.6675 281.018 64.8581 280.767 66.1113C280.516 67.3646 280.303 68.668 280.128 70.0215C279.952 71.3499 279.865 72.6533 279.865 73.9316C279.865 74.458 279.927 74.9718 280.053 75.4731C280.178 75.9744 280.366 76.4256 280.617 76.8267C280.867 77.2026 281.181 77.5034 281.557 77.729C281.958 77.9546 282.421 78.0674 282.948 78.0674C283.825 78.0674 284.577 77.7917 285.204 77.2402C285.83 76.6888 286.357 75.9995 286.783 75.1724C287.209 74.3452 287.547 73.4554 287.798 72.5029C288.074 71.5254 288.299 70.6105 288.475 69.7583C288.625 68.9562 288.876 68.3797 289.227 68.0288C289.577 67.6528 289.941 67.4648 290.317 67.4648C290.618 67.4648 290.931 67.5651 291.257 67.7656C291.583 67.9411 291.871 68.1792 292.122 68.48C292.397 68.7808 292.61 69.1191 292.761 69.4951C292.936 69.8711 293.024 70.2471 293.024 70.623C293.024 70.7484 293.011 70.8486 292.986 70.9238C292.961 70.999 292.949 71.0742 292.949 71.1494C292.598 72.4277 292.134 73.7687 291.558 75.1724C291.006 76.576 290.292 77.8669 289.415 79.0449C288.537 80.223 287.485 81.2005 286.256 81.9775C285.028 82.7546 283.587 83.1431 281.933 83.1431ZM310.62 78.0674C311.397 78.0674 312.061 77.7917 312.612 77.2402C313.189 76.6888 313.678 75.9995 314.079 75.1724C314.505 74.3452 314.843 73.4554 315.094 72.5029C315.369 71.5254 315.595 70.6105 315.771 69.7583C315.946 68.9562 316.197 68.3797 316.522 68.0288C316.873 67.6528 317.249 67.4648 317.65 67.4648C317.951 67.4648 318.252 67.5651 318.553 67.7656C318.879 67.9411 319.167 68.1792 319.417 68.48C319.693 68.7808 319.906 69.1191 320.057 69.4951C320.232 69.8711 320.32 70.2471 320.32 70.623C320.32 70.6732 320.32 70.7358 320.32 70.811C320.32 70.8862 320.295 70.999 320.245 71.1494C319.919 72.4277 319.468 73.7687 318.891 75.1724C318.34 76.576 317.625 77.8669 316.748 79.0449C315.871 80.223 314.806 81.2005 313.552 81.9775C312.324 82.7546 310.883 83.1431 309.229 83.1431C307.875 83.1431 306.697 82.8548 305.694 82.2783C304.692 81.7018 303.902 80.9373 303.326 79.9849C302.549 80.8621 301.609 81.6016 300.506 82.2031C299.428 82.8298 298.162 83.1431 296.708 83.1431C295.205 83.1431 293.876 82.8423 292.723 82.2407C291.595 81.6392 290.643 80.8245 289.866 79.7969C289.089 78.7441 288.5 77.516 288.099 76.1123C287.723 74.6836 287.535 73.1546 287.535 71.5254C287.535 68.3171 288.049 65.4346 289.076 62.8779C290.104 60.3213 291.47 58.1532 293.174 56.3735C294.879 54.5688 296.821 53.1903 299.002 52.2378C301.208 51.2853 303.489 50.8091 305.845 50.8091C306.897 50.8091 307.75 51.0973 308.401 51.6738C309.053 52.2503 309.379 53.0399 309.379 54.0425C309.379 54.6942 309.304 55.1579 309.153 55.4336C309.028 55.6842 308.777 55.8096 308.401 55.8096C308.05 55.8096 307.687 55.7845 307.311 55.7344C306.935 55.6842 306.547 55.6592 306.146 55.6592C304.692 55.6592 303.213 55.985 301.709 56.6367C300.205 57.2633 298.839 58.2409 297.611 59.5693C296.408 60.8727 295.418 62.5396 294.641 64.5698C293.864 66.575 293.475 68.9688 293.475 71.751C293.475 73.7812 293.864 75.3478 294.641 76.4507C295.418 77.5285 296.483 78.0674 297.836 78.0674C298.889 78.0674 299.766 77.6789 300.468 76.9019C301.17 76.0998 301.734 75.1598 302.16 74.082V62.2012C302.16 61.8252 302.135 61.5119 302.085 61.2612C302.06 61.0106 302.022 60.7975 301.972 60.6221C301.947 60.4466 301.922 60.2962 301.897 60.1709C301.872 60.0205 301.859 59.8826 301.859 59.7573C301.859 59.3563 302.047 59.043 302.423 58.8174C302.824 58.5667 303.301 58.4414 303.852 58.4414C305.13 58.4414 306.146 58.7798 306.897 59.4565C307.649 60.1082 308.025 60.8978 308.025 61.8252V74.5332C308.025 74.9593 308.076 75.3854 308.176 75.8115C308.276 76.2126 308.426 76.5885 308.627 76.9395C308.827 77.2653 309.091 77.541 309.417 77.7666C309.767 77.9671 310.168 78.0674 310.62 78.0674ZM362.091 71.1494C361.74 72.4277 361.276 73.7687 360.7 75.1724C360.148 76.576 359.434 77.8669 358.557 79.0449C357.679 80.223 356.627 81.2005 355.398 81.9775C354.17 82.7546 352.729 83.1431 351.075 83.1431C350.047 83.1431 349.132 82.9425 348.33 82.5415C347.553 82.1655 346.876 81.6517 346.3 81C345.748 80.3483 345.322 79.5838 345.021 78.7065C344.746 77.8293 344.608 76.9019 344.608 75.9243V60.2837C344.608 59.6821 344.595 59.1182 344.57 58.5918C344.545 58.0654 344.483 57.6017 344.382 57.2007C344.282 56.7996 344.132 56.4863 343.931 56.2607C343.756 56.0101 343.505 55.8848 343.179 55.8848C342.653 55.8848 342.014 56.2607 341.262 57.0127C340.51 57.7646 339.783 58.7422 339.081 59.9453C338.379 61.1484 337.753 62.5145 337.201 64.0435C336.65 65.5474 336.324 67.0638 336.224 68.5928V79.8345C336.224 80.2104 336.211 80.599 336.186 81C336.186 81.376 336.111 81.7144 335.96 82.0151C335.835 82.341 335.622 82.6042 335.321 82.8047C335.046 83.0303 334.632 83.1431 334.081 83.1431C333.705 83.1431 333.291 83.0929 332.84 82.9927C332.414 82.9175 332.013 82.7546 331.637 82.5039C331.286 82.2783 330.985 81.9399 330.734 81.4888C330.509 81.0627 330.396 80.4862 330.396 79.7593V60.2837C330.396 59.6821 330.371 59.1182 330.321 58.5918C330.296 58.0654 330.233 57.6017 330.133 57.2007C330.033 56.7996 329.882 56.4863 329.682 56.2607C329.506 56.0101 329.256 55.8848 328.93 55.8848C328.403 55.8848 327.764 56.2607 327.012 57.0127C326.285 57.7646 325.558 58.7422 324.832 59.9453C324.13 61.1484 323.503 62.5145 322.952 64.0435C322.425 65.5474 322.099 67.0638 321.974 68.5928V79.8345C321.974 80.2104 321.962 80.599 321.937 81C321.937 81.376 321.861 81.7144 321.711 82.0151C321.586 82.341 321.373 82.6042 321.072 82.8047C320.796 83.0303 320.382 83.1431 319.831 83.1431C319.455 83.1431 319.042 83.0929 318.59 82.9927C318.164 82.9175 317.763 82.7546 317.387 82.5039C317.036 82.2783 316.736 81.9399 316.485 81.4888C316.259 81.0627 316.146 80.4862 316.146 79.7593V55.3584C316.146 54.6315 316.084 54.1051 315.958 53.7793C315.858 53.4535 315.808 53.1527 315.808 52.877C315.808 52.501 316.009 52.2002 316.41 51.9746C316.811 51.724 317.287 51.5986 317.838 51.5986C319.117 51.5986 320.119 51.937 320.846 52.6138C321.598 53.2655 321.974 54.055 321.974 54.9824V58.2158C322.475 57.1631 323.014 56.1855 323.591 55.2832C324.192 54.3809 324.832 53.6038 325.508 52.9521C326.185 52.2754 326.899 51.749 327.651 51.373C328.428 50.9971 329.256 50.8091 330.133 50.8091C331.286 50.8091 332.238 51.0221 332.99 51.4482C333.767 51.8743 334.381 52.4383 334.833 53.1401C335.309 53.842 335.647 54.6315 335.848 55.5088C336.048 56.361 336.174 57.2132 336.224 58.0654C336.7 57.0378 337.226 56.0853 337.803 55.208C338.379 54.3307 339.006 53.5662 339.683 52.9146C340.359 52.2629 341.074 51.749 341.826 51.373C342.603 50.9971 343.43 50.8091 344.307 50.8091C345.56 50.8091 346.588 51.0472 347.39 51.5234C348.192 51.9997 348.819 52.6138 349.27 53.3657C349.721 54.1177 350.035 54.9574 350.21 55.8848C350.385 56.8122 350.473 57.7145 350.473 58.5918V74.5332C350.473 74.7087 350.486 74.9969 350.511 75.3979C350.536 75.7739 350.611 76.1624 350.736 76.5635C350.862 76.9645 351.05 77.3154 351.3 77.6162C351.576 77.917 351.965 78.0674 352.466 78.0674C353.243 78.0674 353.907 77.7917 354.458 77.2402C355.035 76.6888 355.524 75.9995 355.925 75.1724C356.351 74.3452 356.702 73.4554 356.978 72.5029C357.253 71.5254 357.479 70.6105 357.654 69.7583C357.805 68.9562 358.043 68.3797 358.369 68.0288C358.72 67.6528 359.096 67.4648 359.497 67.4648C359.797 67.4648 360.098 67.5651 360.399 67.7656C360.725 67.9411 361.013 68.1792 361.264 68.48C361.539 68.7808 361.752 69.1191 361.903 69.4951C362.078 69.8711 362.166 70.2471 362.166 70.623C362.166 70.6732 362.166 70.7358 362.166 70.811C362.166 70.8862 362.141 70.999 362.091 71.1494Z" fill="#73DBFF"/>
</svg>
