<svg width="512" height="512" viewBox="0 0 512 512" fill="none" xmlns="http://www.w3.org/2000/svg">
<g id="fill">
<path id="Vector" d="M256 501.5C391.586 501.5 501.5 391.586 501.5 256C501.5 120.414 391.586 10.5 256 10.5C120.414 10.5 10.5 120.414 10.5 256C10.5 391.586 120.414 501.5 256 501.5Z" fill="#21075F" stroke="#8155F1" stroke-width="11"/>
<path id="Vector_2" d="M373.803 363.197L307.492 296.888C322.113 279.835 331 257.723 331 233.5C331 179.652 287.348 136 233.5 136C179.652 136 136 179.652 136 233.5C136 287.348 179.652 331 233.5 331C257.723 331 279.835 322.112 296.887 307.493L363.197 373.803C364.662 375.268 366.581 376 368.5 376C370.419 376 372.338 375.268 373.803 373.803C376.732 370.873 376.732 366.127 373.803 363.197ZM233.5 316C188.009 316 151 278.991 151 233.5C151 188.009 188.009 151 233.5 151C278.991 151 316 188.009 316 233.5C316 278.991 278.991 316 233.5 316Z" fill="#8155F1"/>
</g>
</svg>
