<svg width="512" height="512" viewBox="0 0 512 512" fill="none" xmlns="http://www.w3.org/2000/svg">
<g id="fill">
<path id="Vector" d="M256 501.5C391.586 501.5 501.5 391.586 501.5 256C501.5 120.414 391.586 10.5 256 10.5C120.414 10.5 10.5 120.414 10.5 256C10.5 391.586 120.414 501.5 256 501.5Z" fill="#21075F" stroke="#8155F1" stroke-width="11"/>
<path id="Vector_2" d="M376.002 256.498C376.002 254.652 375.238 252.816 373.742 251.501L260.408 151.657C259.152 150.552 257.576 150 256.001 150C254.425 150 252.85 150.552 251.593 151.657L138.26 251.501C136.763 252.816 136 254.652 136 256.498C136 260.21 139.017 263.147 142.687 263.147C144.253 263.147 145.821 262.6 147.075 261.486L162.667 247.75V343.025C162.667 354.036 171.639 362.993 182.667 362.993H216.001C227.03 362.993 236.001 354.036 236.001 343.025V296.431H276.001V343.025C276.001 354.036 284.972 362.993 296.001 362.993H329.334C340.363 362.993 349.334 354.036 349.334 343.025V247.75L364.927 261.486C366.19 262.604 367.765 263.15 369.334 263.15C372.97 263.15 376.002 260.215 376.002 256.498ZM336.001 236.525V343.025C336.001 346.691 333.013 349.681 329.334 349.681H296.001C292.323 349.681 289.334 346.691 289.334 343.025V296.431C289.334 289.086 283.351 283.118 276.001 283.118H236.001C228.651 283.118 222.667 289.086 222.667 296.431V343.025C222.667 346.691 219.679 349.681 216.001 349.681H182.667C178.989 349.681 176.001 346.691 176.001 343.025V236.525C176.001 236.368 175.922 236.237 175.911 236.083L256.001 165.529L336.09 236.083C336.08 236.237 336.001 236.368 336.001 236.525Z" fill="#8155F1"/>
</g>
</svg>
