<svg width="512" height="512" viewBox="0 0 512 512" fill="none" xmlns="http://www.w3.org/2000/svg">
<g id="fill">
<path id="Vector" d="M256 501.5C391.586 501.5 501.5 391.586 501.5 256C501.5 120.414 391.586 10.5 256 10.5C120.414 10.5 10.5 120.414 10.5 256C10.5 391.586 120.414 501.5 256 501.5Z" fill="#21075F" stroke="#8155F1" stroke-width="11"/>
<path id="Vector_2" d="M352.69 165.397C327.143 143.598 288.939 147.232 265.267 171.726L256.008 181.277L246.751 171.726C227.649 151.978 189.093 140.083 159.327 165.397C129.854 190.478 128.33 235.599 154.639 262.788L245.344 356.429C248.274 359.477 252.141 361 255.95 361C259.818 361 263.626 359.477 266.556 356.429L357.261 262.788C383.687 235.599 382.164 190.478 352.69 165.397ZM346.596 252.358L256.184 346.057L165.421 252.358C147.432 233.841 143.682 198.447 169.054 176.824C194.718 154.849 224.953 170.788 235.969 182.215L256.008 202.9L276.048 182.215C286.888 170.964 317.358 155.025 342.963 176.824C368.276 198.388 364.585 233.782 346.596 252.358Z" fill="#8155F1"/>
</g>
</svg>
