<svg width="512" height="512" viewBox="0 0 512 512" fill="none" xmlns="http://www.w3.org/2000/svg">
<g id="search-alt" clip-path="url(#clip0_10_112)">
<path id="Vector" d="M500.284 443.717L380.623 324.055C407.845 283.64 421.271 233.159 414.082 179.355C401.848 87.8021 326.803 13.3271 235.167 1.72406C99.0138 -15.5149 -15.5092 99.0041 1.72176 235.155C13.3198 326.794 87.7928 401.844 179.349 414.081C233.154 421.272 283.638 407.846 324.052 380.625L443.717 500.285C459.337 515.905 484.662 515.905 500.283 500.286C515.905 484.665 515.905 459.338 500.284 443.717ZM288.002 232H231.998V288C231.998 301.262 221.258 312 208 312C194.734 312 184.002 301.258 184.002 288V232H127.998C114.73 232 104 221.258 104 208C104 194.742 114.738 184 127.998 184H184.002V128C184.002 114.738 194.742 104 208 104C221.258 104 231.998 114.738 231.998 128V184H288.002C301.261 184 312 194.742 312 208C312 221.258 301.261 232 288.002 232Z" fill="#10F9F9"/>
</g>
<defs>
<clipPath id="clip0_10_112">
<rect width="512" height="512" fill="white"/>
</clipPath>
</defs>
</svg>
