<svg width="448" height="512" viewBox="0 0 448 512" fill="none" xmlns="http://www.w3.org/2000/svg">
<g id="trash-alt">
<path id="Vector" d="M32 464C32 490.5 53.5 512 80 512H368C394.5 512 416 490.5 416 464V128H32V464ZM304 208C304 199.125 311.125 192 320 192C328.875 192 336 199.125 336 208V432C336 440.875 328.875 448 320 448C311.125 448 304 440.875 304 432V208ZM208 208C208 199.125 215.125 192 224 192C232.875 192 240 199.125 240 208V432C240 440.875 232.875 448 224 448C215.125 448 208 440.875 208 432V208ZM112 208C112 199.125 119.125 192 128 192C136.875 192 144 199.125 144 208V432C144 440.875 136.875 448 128 448C119.125 448 112 440.875 112 432V208ZM432 32H320L308.422 8.844C305.713 3.424 300.172 0 294.111 0H153.889C147.828 0 142.289 3.424 139.578 8.844L128 32H16C7.164 32 0 39.162 0 48V80C0 88.836 7.164 96 16 96H432C440.838 96 448 88.836 448 80V48C448 39.162 440.838 32 432 32Z" fill="#10F9F9"/>
</g>
</svg>
