<svg width="512" height="512" viewBox="0 0 512 512" fill="none" xmlns="http://www.w3.org/2000/svg">
<g id="fill">
<path id="Vector" d="M256 501.5C391.586 501.5 501.5 391.586 501.5 256C501.5 120.414 391.586 10.5 256 10.5C120.414 10.5 10.5 120.414 10.5 256C10.5 391.586 120.414 501.5 256 501.5Z" fill="#21075F" stroke="#8155F1" stroke-width="11"/>
<path id="Vector_2" d="M256 256.427C293.872 256.427 324.571 225.662 324.571 187.714C324.571 149.765 293.872 119 256 119C218.131 119 187.429 149.765 187.429 187.714C187.429 225.662 218.131 256.427 256 256.427ZM256 136.178C284.359 136.178 307.429 159.296 307.429 187.714C307.429 216.13 284.359 239.249 256 239.249C227.641 239.249 204.571 216.13 204.571 187.714C204.571 159.296 227.641 136.178 256 136.178ZM283.141 282.195H228.859C177.576 282.195 136 323.854 136 375.244C136 385.522 144.316 393.855 154.57 393.855H357.43C367.684 393.855 376 385.522 376 375.244C376 323.854 334.427 282.195 283.141 282.195ZM357.43 376.676H154.57C153.783 376.676 153.143 376.034 153.143 375.244C153.143 333.408 187.108 299.373 228.859 299.373H283.141C324.892 299.373 358.857 333.408 358.857 375.244C358.857 376.034 358.217 376.676 357.43 376.676Z" fill="#8155F1"/>
</g>
</svg>
