<svg width="512" height="512" viewBox="0 0 512 512" fill="none" xmlns="http://www.w3.org/2000/svg">
<g id="fill">
<path id="Vector" d="M256 501.5C391.586 501.5 501.5 391.586 501.5 256C501.5 120.414 391.586 10.5 256 10.5C120.414 10.5 10.5 120.414 10.5 256C10.5 391.586 120.414 501.5 256 501.5Z" fill="#21075F" stroke="#8155F1" stroke-width="11"/>
<path id="Vector_2" d="M255.504 376C229.23 376 219.877 370.691 219.877 359.153V340.607C212.764 337.619 206.121 333.795 200.019 329.166L183.942 338.439C181.776 339.706 179.265 340.321 176.743 340.321C159.533 340.321 141 296.787 141 289.395C141 284.309 143.722 279.392 148.366 276.707L164.385 267.463C163.872 263.552 163.623 259.757 163.623 255.992C163.623 252.227 163.872 248.433 164.385 244.522L148.358 235.264C143.72 232.591 141 227.676 141 222.584C141 216.685 158.805 171.648 176.72 171.648C179.259 171.648 181.794 172.276 183.993 173.575L200.019 182.819C206.121 178.19 212.764 174.367 219.877 171.378V152.832C219.877 138.032 236.587 136 255.5 136C274.116 136 291.131 137.914 291.131 152.832V171.378C298.243 174.367 304.887 178.19 310.988 182.819L327.066 173.546C329.232 172.279 331.744 171.665 334.269 171.665C351.365 171.665 370.008 215.049 370.008 222.59C370.008 227.676 367.286 232.594 362.642 235.278L346.623 244.522C347.136 248.433 347.385 252.228 347.385 255.992C347.385 259.757 347.136 263.552 346.623 267.463L362.649 276.722C367.287 279.394 370.008 284.31 370.008 289.401C370.008 295.302 352.204 340.337 334.283 340.337C331.742 340.337 329.208 339.71 327.015 338.41L310.988 329.166C304.887 333.795 298.243 337.619 291.131 340.607V359.153C291.131 370.665 281.828 376 255.504 376ZM201.572 310.942C218.408 325.39 226.105 327.049 234.878 330.162V359.153C241.492 360.252 248.386 360.9 255.392 360.9C262.398 360.9 269.516 360.252 276.577 358.758L276.13 330.162C283.663 327.489 292.621 325.372 309.435 310.942L334.566 325.46C343.371 315.117 350.395 302.973 354.907 289.569L330.091 275.242C331.378 268.213 332.369 263.32 332.369 256.927C332.369 251.793 331.73 245.693 330.091 236.743L355.148 222.285C350.542 209.276 343.466 196.985 334.01 186.32L309.435 201.043C292.6 186.595 284.903 184.936 276.13 181.823V152.832C269.516 151.734 262.621 151.085 255.615 151.085C248.61 151.085 241.492 151.734 234.431 153.227L234.878 181.823C227.345 184.496 218.386 186.613 201.572 201.043L176.441 186.526C167.542 196.985 160.466 209.276 155.962 222.841L180.917 236.743C179.63 243.772 178.639 248.666 178.639 255.058C178.639 260.192 179.278 266.293 180.917 275.242L155.859 289.701C160.466 302.71 167.542 315 176.998 325.665L201.572 310.942ZM255.504 300.995C230.688 300.995 210.501 280.809 210.501 255.992C210.501 231.176 230.688 210.99 255.504 210.99C280.32 210.99 300.507 231.177 300.507 255.992C300.507 280.808 280.32 300.995 255.504 300.995ZM255.504 225.991C238.957 225.991 225.502 239.454 225.502 255.992C225.502 272.531 238.957 285.994 255.504 285.994C272.05 285.994 285.506 272.532 285.506 255.992C285.506 239.453 272.05 225.991 255.504 225.991Z" fill="#8155F1"/>
</g>
</svg>
