<svg width="512" height="512" viewBox="0 0 512 512" fill="none" xmlns="http://www.w3.org/2000/svg">
<path d="M256 16C123.453 16 16 123.451 16 256C16 388.549 123.453 496 256 496C388.547 496 496 388.549 496 256C496 123.451 388.547 16 256 16ZM256 480C132.486 480 32 379.514 32 256C32 132.486 132.486 32 256 32C379.514 32 480 132.486 480 256C480 379.514 379.514 480 256 480ZM376.002 248H264.002V136C264.002 131.578 260.424 128 256.002 128C251.58 128 248.002 131.578 248.002 136V248H136.002C131.58 248 128.002 251.578 128.002 256C128.002 260.422 131.58 264 136.002 264H248.002V376C248.002 380.422 251.58 384 256.002 384C260.424 384 264.002 380.422 264.002 376V264H376.002C380.424 264 384.002 260.422 384.002 256C384.002 251.578 380.424 248 376.002 248Z" fill="#10F9F9"/>
</svg>
