<svg width="512" height="512" viewBox="0 0 512 512" fill="none" xmlns="http://www.w3.org/2000/svg">
<g id="share">
<path id="Vector" d="M136 231.996H482.701L306.734 78.0252C303.406 75.1192 303.062 70.0562 305.984 66.7122C308.906 63.4002 313.953 63.0872 317.266 65.9622L509.266 233.965C511 235.496 512 237.684 512 239.997C512 242.309 511 244.497 509.266 246.028L317.266 414.031C315.75 415.343 313.875 415.999 312 415.999C309.781 415.999 307.562 415.062 305.984 413.281C303.062 409.937 303.406 404.874 306.734 401.968L482.701 247.997H136C69.828 247.997 16 301.841 16 367.999V440C16 444.406 12.422 448 8 448C3.578 448 0 444.406 0 440V367.999C0 292.997 61.016 231.996 136 231.996Z" fill="#10F9F9"/>
</g>
</svg>
