<svg width="512" height="512" viewBox="0 0 512 512" fill="none" xmlns="http://www.w3.org/2000/svg">
<g id="spinner">
<path id="Vector" d="M108.875 355.125C82.375 355.125 60.875 376.625 60.875 403.125C60.875 429.625 82.375 451.125 108.875 451.125C135.375 451.125 156.875 429.625 156.875 403.125C156.875 376.625 135.375 355.125 108.875 355.125ZM108.875 435.125C91.23 435.125 76.875 420.77 76.875 403.125C76.875 385.48 91.23 371.125 108.875 371.125C126.52 371.125 140.875 385.48 140.875 403.125C140.875 420.77 126.52 435.125 108.875 435.125ZM464 208C437.5 208 416 229.5 416 256C416 282.5 437.5 304 464 304C490.5 304 512 282.5 512 256C512 229.5 490.5 208 464 208ZM464 288C446.355 288 432 273.645 432 256C432 238.355 446.355 224 464 224C481.645 224 496 238.355 496 256C496 273.645 481.645 288 464 288ZM256 0C229.5 0 208 21.5 208 48C208 74.5 229.5 96 256 96C282.5 96 304 74.5 304 48C304 21.5 282.5 0 256 0ZM256 80C238.355 80 224 65.645 224 48C224 30.355 238.355 16 256 16C273.645 16 288 30.355 288 48C288 65.645 273.645 80 256 80ZM96 256C96 229.5 74.5 208 48 208C21.5 208 0 229.5 0 256C0 282.5 21.5 304 48 304C74.5 304 96 282.5 96 256ZM48 288C30.355 288 16 273.645 16 256C16 238.355 30.355 224 48 224C65.645 224 80 238.355 80 256C80 273.645 65.645 288 48 288ZM256 416C229.5 416 208 437.5 208 464C208 490.5 229.5 512 256 512C282.5 512 304 490.5 304 464C304 437.5 282.5 416 256 416ZM256 496C238.355 496 224 481.645 224 464C224 446.355 238.355 432 256 432C273.645 432 288 446.355 288 464C288 481.645 273.645 496 256 496ZM108.875 60.875C82.375 60.875 60.875 82.375 60.875 108.875C60.875 135.375 82.375 156.875 108.875 156.875C135.375 156.875 156.875 135.375 156.875 108.875C156.875 82.375 135.375 60.875 108.875 60.875ZM108.875 140.875C91.23 140.875 76.875 126.52 76.875 108.875C76.875 91.23 91.23 76.875 108.875 76.875C126.52 76.875 140.875 91.23 140.875 108.875C140.875 126.52 126.52 140.875 108.875 140.875ZM403.125 355.125C376.625 355.125 355.125 376.625 355.125 403.125C355.125 429.625 376.625 451.125 403.125 451.125C429.625 451.125 451.125 429.625 451.125 403.125C451.125 376.625 429.625 355.125 403.125 355.125ZM403.125 435.125C385.48 435.125 371.125 420.77 371.125 403.125C371.125 385.48 385.48 371.125 403.125 371.125C420.77 371.125 435.125 385.48 435.125 403.125C435.125 420.77 420.77 435.125 403.125 435.125Z" fill="#10F9F9"/>
</g>
</svg>
